<svg width="14" height="22" viewBox="0 0 14 22" fill="none" xmlns="http://www.w3.org/2000/svg">
<path d="M7 11C5.14348 11 3.36301 11.7375 2.05025 13.0503C0.737498 14.363 0 16.1435 0 18V20C0 20.5304 0.210714 21.0391 0.585786 21.4142C0.960859 21.7893 1.46957 22 2 22H12C12.5304 22 13.0391 21.7893 13.4142 21.4142C13.7893 21.0391 14 20.5304 14 20V18C14 16.1435 13.2625 14.363 11.9497 13.0503C10.637 11.7375 8.85652 11 7 11Z" fill="black"/>
<path d="M7 10C9.20914 10 11 8.20914 11 6C11 3.79086 9.20914 2 7 2C4.79086 2 3 3.79086 3 6C3 8.20914 4.79086 10 7 10Z" fill="black"/>
</svg>
